<!-- Generated by IcoMoon.io -->
<svg version="1.1" xmlns="http://www.w3.org/2000/svg" width="1551" height="1024" viewBox="0 0 1551 1024">
<g id="icomoon-ignore">
</g>
<path fill="#000" d="M383.852 7.902c-16.265 25.946-26.209 50.772-28.909 72.701-1.185 9.022-0.527 27.921 1.251 35.297 4.807 20.678 14.685 37.009 30.885 50.904 9.746 8.363 11.985 13.631 11.985 27.79 0 16.595-3.951 23.707-25.024 45.438-14.487 14.883-16.858 17.648-27.855 32.465-22.126 29.699-37.931 59.991-48.731 93.312-3.556 10.8-7.902 27.065-7.573 28.119 0.132 0.395 2.107 1.251 4.412 1.976s4.017 1.383 3.885 1.515c-0.132 0.198-1.712-0.132-3.556-0.659-6.256-1.778-19.031-3.885-32.531-5.268l-2.963-0.329 1.976 1.515c9.153 6.849 16.2 13.566 30.094 28.975 7.112 7.836 10.075 11.853 9.417 12.907-0.659 1.185-2.437-0.132-5.861-4.478-3.49-4.346-6.914-6.914-9.944-7.507-1.119-0.198-4.741-1.449-8.166-2.766-8.034-3.095-15.344-4.675-26.538-5.729-6.454-0.527-9.417-0.593-10.536-0.066-1.449 0.659-1.317 0.724 1.515 1.515 2.634 0.659 3.227 1.119 4.083 3.293 0.527 1.317 4.215 8.232 8.166 15.212 8.166 14.356 13.368 24.431 17.187 33.585 4.017 9.483 8.758 22.917 9.351 26.604 0.659 4.149 6.388 17.583 11.195 26.341 4.28 7.771 13.302 17.648 22.39 24.431 10.602 7.902 26.275 14.883 39.841 17.714 8.232 1.778 22.587 2.041 30.424 0.659 26.275-4.675 53.274-20.678 81.393-48.335 15.475-15.212 29.238-31.477 39.775-47.018 2.437-3.49 4.61-6.388 4.873-6.388 1.515 0 1.054 2.107-1.91 8.758-4.544 10.207-7.705 20.48-9.68 31.214-2.371 12.775-4.544 21.599-7.705 31.148-3.885 11.722-4.478 13.039-9.68 19.624l-4.741 5.927 1.712 3.095c1.976 3.754 2.173 6.454 0.527 6.124-0.659-0.132-1.317-1.054-1.58-2.305-0.198-1.185-0.856-2.832-1.449-3.688-1.054-1.58-6.322-4.675-6.98-4.083-0.132 0.198 0.659 1.317 1.778 2.502 2.963 3.029 2.897 4.741-0.066 2.832-0.79-0.527-3.029-1.383-4.939-1.976l-3.49-0.988 3.688 4.412c3.293 4.017 4.412 5.861 3.095 5.268-0.263-0.132-2.173-1.054-4.28-2.107s-3.951-1.778-4.083-1.646c-0.132 0.198 0.79 1.646 2.107 3.227 4.083 5.136 6.388 10.8 6.783 17.122 0.329 4.412 0.922 6.717 2.766 10.866 4.215 9.614 12.38 34.111 12.38 37.206 0 0.593 1.646 3.819 3.622 7.178 8.758 14.487 14.158 30.95 14.158 43.067 0 8.758 0.527 9.614 6.585 10.47 4.873 0.659 5.861 1.383 7.968 5.861l1.58 3.227h9.549l0.066-2.173 0.066-2.107 0.527 1.844c0.329 1.054 0.395 2.305 0.198 2.897-0.329 0.79 0.066 0.856 2.173 0.461 4.28-0.79 5.532-1.449 5.597-3.029 0.066-0.856 0.329-0.263 0.724 1.251 0.659 3.161 1.251 3.424 3.227 1.449 1.185-1.185 1.383-1.976 1.119-6.19-0.329-6.849-2.041-9.088-10.405-13.5-7.771-4.083-12.841-8.1-17.912-14.092-4.149-4.939-4.675-6.322-8.363-21.139-3.556-14.422-4.017-17.517-4.017-28.119v-10.075l10.075-5.071c5.466-2.832 13.302-7.046 17.253-9.351l7.244-4.215 1.844 2.041c2.766 3.227 12.183 16.858 16.331 23.707 5.005 8.166 10.931 19.756 14.619 28.58 2.963 7.046 3.095 7.507 3.095 13.829 0 7.902 0.79 9.614 4.544 9.351 1.317-0.066 3.029-0.066 3.819 0 2.107 0.132 5.927 3.688 6.849 6.454l0.724 2.371 4.939-0.395c2.7-0.198 5.136-0.527 5.334-0.79 1.449-1.449-5.071-6.849-8.297-6.914-1.119 0-1.515-0.329-1.317-1.185s0.724-1.054 2.502-0.856c3.819 0.329 7.178 2.7 9.022 6.256 0.79 1.58 0.856 1.976 0.066 2.437-0.593 0.395-0.593 0.593-0.066 0.593 0.395 0 0.922-0.263 1.119-0.593 0.198-0.263 1.712-0.922 3.358-1.383 2.305-0.659 2.963-1.119 2.963-2.239 0-2.041-2.371-5.597-4.61-6.849-1.251-0.724-1.976-1.646-1.976-2.634 0-2.173 1.054-1.778 4.675 1.844l3.358 3.358-0.461-2.173c-0.856-4.149-3.424-7.573-7.573-10.075-8.166-4.939-15.014-12.973-17.714-20.809-2.766-7.771-15.936-58.082-16.595-63.218-0.198-1.515 0.988-3.095 7.705-9.944 18.504-19.031 25.88-36.745 23.904-57.621-0.527-6.124-2.107-14.817-4.346-24.695l-0.988-4.478 2.502-3.293c4.083-5.334 10.339-9.219 17.122-10.536 3.227-0.659 5.005-0.593 10.141 0.263 21.336 3.688 39.248 15.344 51.299 33.321 3.161 4.741 4.017 6.717 5.597 12.841 12.314 47.545 32.399 80.866 58.279 96.473 8.495 5.071 14.619 7.31 31.148 11.524 4.873 1.251 7.112 2.897 7.112 5.334 0 2.041-2.239 6.651-4.412 8.956-1.251 1.317-1.58 2.173-1.251 3.424 0.461 1.778-0.527 5.005-1.515 5.005-0.329 0-0.79-1.778-1.054-3.951-0.395-3.358-0.79-4.215-2.7-5.927-1.251-1.054-2.502-1.976-2.832-1.976-0.263 0 0.329 1.712 1.383 3.754 2.437 4.807 1.646 5.597-2.568 2.568-1.778-1.251-4.083-2.634-5.071-3.029l-1.91-0.724 1.119 1.646c0.593 0.922 2.107 3.622 3.424 5.993 2.634 4.741 1.976 5.795-1.449 2.239-1.054-1.119-3.029-2.634-4.412-3.293l-2.502-1.317 1.712 2.568c2.7 4.149 4.346 9.746 4.675 16.2 0.198 3.293 0.461 6.717 0.659 7.573 0.79 3.688 14.751 16.265 32.86 29.502 10.141 7.441 41.355 28.843 49.126 33.716l4.346 2.7h27.263l-1.054-1.976c-1.317-2.568-1.251-3.951 0.198-3.951 0.79 0 1.646 0.922 2.437 2.634 1.185 2.568 1.251 2.634 4.675 2.634h3.49l-0.988-2.305c-1.185-2.963-1.185-4.28 0.132-4.28 0.593 0 1.449 1.119 2.041 2.634 0.922 2.371 1.317 2.634 3.293 2.634h2.173l-0.395-2.832c-0.79-5.005-3.358-8.297-8.495-10.866-3.293-1.646-14.883-4.544-21.402-5.4-7.244-0.856-15.805-4.346-15.805-6.454 0-0.395-0.329-0.79-0.659-0.79-0.395 0-2.239-1.383-4.083-3.161-8.166-7.639-16.529-22.785-19.558-35.626-2.239-9.285-0.198-13.105 9.153-17.451 1.976-0.922 4.741-1.712 6.058-1.712 1.383 0 3.951-0.593 5.795-1.317l3.358-1.317 5.071 4.675c10.273 9.417 29.041 23.246 59.333 43.528l18.636 12.512 19.887-0.329c10.866-0.198 20.875-0.593 22.126-0.922 2.173-0.593 2.305-0.724 2.107-3.227-0.659-7.968-6.914-12.183-22.521-15.212-5.663-1.054-5.927-1.054-7.178 0.066s-1.712 1.185-5.466 0.395c-11.656-2.239-21.929-11.59-29.963-27.394-3.161-6.124-7.441-17.122-7.441-19.031 0-1.515 1.976-1.778 16.397-2.371 15.607-0.593 21.007-1.251 30.358-3.556 24.168-6.058 46.294-21.27 60.386-41.553 6.322-9.022 8.166-11.392 11.919-15.475 1.844-2.041 3.424-3.885 3.424-4.149 0-0.198-1.054-0.395-2.305-0.395-2.963 0-10.207-2.7-13.631-5.005-5.136-3.556-9.088-10.602-9.088-16.2 0-3.951 1.58-3.095 2.502 1.317 2.107 10.339 10.668 16.134 25.155 17.253 3.819 0.329 7.705 0.724 8.758 0.988 0.988 0.263 1.778 0.198 1.778-0.132s0.461-1.185 1.054-1.91c0.988-1.185 0.988-1.185 0.329 0.198-0.395 0.79-0.724 2.371-0.724 3.556v2.107l2.897-2.7c1.58-1.449 3.49-2.963 4.346-3.424 1.383-0.724 1.449-0.659 1.119 0.724-4.215 17.385-4.28 16.99 1.515 10.866 3.819-4.017 8.956-7.639 10.866-7.639 0.856 0 0.198 1.778-0.988 2.502-0.724 0.395-2.041 2.239-2.963 4.083-1.712 3.424-3.951 11.722-3.293 12.38 0.198 0.198 0.329 0.066 0.329-0.329 0-1.251 4.017-5.729 7.441-8.363 4.807-3.622 14.948-8.363 18.702-8.824 1.712-0.198 3.358-0.659 3.622-0.988 0.593-0.922 6.651 0.461 13.302 2.963l5.202 2.041 12.841-0.461c7.112-0.263 15.278-0.79 18.175-1.119 2.963-0.329 9.153-0.79 13.829-1.054 7.771-0.329 8.692-0.527 10.075-1.91 1.251-1.251 1.515-2.239 1.515-5.466 0-2.239-0.329-5.268-0.724-6.783-0.724-2.634-0.593-3.227 1.91-9.285l2.7-6.388h-5.4c-4.544 0-6.651-0.395-12.973-2.502l-7.573-2.568v-15.673l2.963 0.198c1.778 0.066 3.293 0.593 3.754 1.251 0.659 0.79 0.988 0.856 1.778 0.263 0.724-0.593 0.988-0.527 1.317 0.329 0.395 1.054 0.527 1.054 1.317-0.066s0.922-1.119 1.515-0.066c0.593 1.054 0.724 1.054 1.449 0.132 1.251-1.515 4.083-1.317 4.478 0.263s1.251 1.712 2.041 0.263c0.527-0.988 0.659-0.988 0.988 0 0.593 1.449 1.58 1.317 1.976-0.263 0.527-1.91 4.412-1.91 4.412 0.066 0 1.054 0.263 1.251 1.317 0.922 1.185-0.395 1.251-0.198 0.922 1.778-0.263 1.185-1.119 3.885-1.91 5.927-1.185 2.963-1.317 3.819-0.593 3.819 1.251 0 8.1-7.046 10.141-10.339 1.778-2.897 2.832-3.49 6.783-3.49 5.466 0 10.47-3.951 13.697-10.8 2.7-5.663 2.568-6.454-1.383-8.1l-3.293-1.383-0.988 2.305c-1.119 2.634-4.741 7.441-5.663 7.441-0.329 0-0.593-0.988-0.593-2.173 0-2.897-2.963-7.771-7.968-13.236l-4.149-4.478 5.466 2.766 5.466 2.7-2.107-2.963c-2.239-3.358-3.688-4.346-6.256-4.346-0.922 0-3.227-0.724-5.136-1.646l-3.424-1.712 2.634 2.305c1.449 1.317 2.305 2.371 1.976 2.371-1.251 0-20.151-10.8-29.172-16.661-5.861-3.819-9.153-6.388-9.878-7.771-3.095-5.729-6.651-10.273-10.602-13.566-5.795-4.807-12.907-8.956-19.756-11.458-8.89-3.227-35.692-9.812-39.972-9.812-1.119 0-1.58 0.395-1.58 1.317 0 1.251-0.461 1.317-13.105 1.317-8.1 0-13.302-0.263-13.566-0.659-0.198-0.395-1.317-0.659-2.371-0.659s-4.215-1.119-7.046-2.568c-10.931-5.466-24.563-8.89-25.551-6.454-0.198 0.659 0.527 2.634 1.844 4.741 1.185 2.041 2.766 4.675 3.49 5.927 0.724 1.185 2.766 4.346 4.544 6.98 1.778 2.7 3.819 5.861 4.61 7.046 1.976 3.095 6.585 5.927 11.063 6.849 3.49 0.724 4.807 1.844 3.227 2.766-1.054 0.659-8.1-1.58-10.931-3.556-1.778-1.185-3.819-3.556-5.334-6.058-1.317-2.305-3.754-5.993-5.334-8.232-1.515-2.239-2.832-4.346-2.832-4.675 0-0.395-1.515-0.988-3.293-1.383-2.568-0.527-3.819-0.527-5.4 0.132l-2.041 0.79 4.61 5.597c5.005 6.19 9.417 12.117 9.417 12.775 0 0.198-0.395 0.395-0.922 0.395s-2.239-1.778-3.819-3.951c-1.515-2.173-3.029-3.951-3.227-3.951s-1.712 1.91-3.49 4.28c-15.080 20.546-44.384 36.548-66.708 36.548-7.836 0-16.661-1.91-23.443-5.136-5.795-2.7-18.241-12.051-18.241-13.631 0-0.527-1.515-3.358-3.424-6.388-4.61-7.441-11.261-21.336-13.697-28.646-3.885-11.788-4.083-21.731-0.593-28.646 0.724-1.449 1.054-2.437 0.659-2.239-1.449 0.922-6.717 8.956-8.956 13.631-2.173 4.675-4.939 13.895-4.939 16.595 0 2.568-0.724 0.593-1.646-4.675-0.461-2.897-1.251-9.549-1.646-14.751-0.395-5.136-0.856-9.483-0.922-9.614-0.659-0.659-7.639 11.985-10.207 18.504-1.646 4.083-1.976 5.663-1.646 7.771 0.395 2.371 0.329 2.7-0.79 2.437-2.107-0.395-3.556-6.914-4.017-18.241-0.461-11.195-0.461-11.195-3.951-4.346-2.173 4.215-2.832 6.717-3.358 12.841-0.329 3.754-0.724 4.939-1.449 4.939-1.449 0-1.646-6.124-0.329-10.668 0.922-3.161 0.922-3.688 0.132-4.346-0.527-0.461-10.273-7.771-21.599-16.331-80.274-60.452-109.578-74.61-150.735-72.767-19.887 0.922-48.796 3.688-55.777 5.334-10.931 2.634-23.509 7.771-32.070 13.039l-2.568 1.58 2.897 0.395c1.58 0.263 5.202 0.659 8.034 0.856 4.215 0.395 5.071 0.659 4.939 1.515-0.263 1.317-2.897 1.317-14.026 0.132-16.002-1.646-22.192-3.951-29.633-10.734-4.675-4.28-4.741-4.017-1.054 3.227 2.897 5.663 7.836 11.524 11.063 13.039 2.897 1.383 3.754 2.963 1.646 2.963-1.58 0-13.302-6.322-19.624-10.536-4.346-2.897-4.939-3.161-4.544-1.844 1.054 3.754 5.729 12.446 8.824 16.595 1.91 2.437 3.293 4.61 3.161 4.741-0.79 0.79-10.931-3.951-15.607-7.244-4.61-3.293-4.61-3.293-3.161 0.066 2.173 5.071 5.4 9.68 8.297 11.919 3.029 2.437 3.424 2.502 6.124 1.054 1.119-0.527 2.107-0.922 2.239-0.79s-1.58 2.239-3.754 4.807c-20.019 23.312-40.104 51.826-51.891 73.754-11.261 20.941-27.263 42.079-42.145 55.513-5.005 4.544-5.136 4.61-11.919 6.256-9.746 2.371-15.673 3.161-24.036 3.161-11.656 0-19.558-2.437-25.616-8.034-6.585-6.058-11.195-25.353-9.549-40.104 0.79-6.98 2.766-15.475 4.28-18.439 1.251-2.371 15.475-16.002 23.707-22.587 17.187-13.829 32.926-21.139 43.001-19.953 3.688 0.461 6.849 1.712 11.656 4.675 3.424 2.107 4.017 2.041 2.634-0.198-4.544-7.112-11.063-13.368-19.558-18.768-4.478-2.897-11.853-5.466-17.451-6.124-3.556-0.395-4.675-0.198-8.429 1.317-4.412 1.778-7.573 2.239-7.573 1.054 0-0.395 0.395-0.659 0.922-0.659 0.461 0 2.305-0.593 4.083-1.251 20.743-8.297 27.065-10.075 40.236-11.392l8.1-0.79-3.754-3.885c-5.729-5.861-14.224-11.919-21.863-15.739-5.861-2.963-7.573-3.49-11.392-3.688-3.227-0.198-4.478-0.527-4.478-1.185 0-1.251 5.729-4.741 8.561-5.268 1.251-0.198 5.4-1.449 9.219-2.766 5.993-1.976 7.968-2.371 15.014-2.634l8.1-0.329-3.161-2.832c-8.692-7.836-16.726-12.051-23.509-12.183l-3.358-0.132 2.634-0.395c2.502-0.395 5.927-0.066 9.549 0.79 1.515 0.395 1.976-0.132 6.519-7.968 7.968-13.697 21.27-34.836 27.329-43.265 17.846-25.090 25.616-47.414 24.497-70.462-1.58-33.782-20.414-63.35-60.979-95.815-11.195-9.022-13.829-11.458-13.829-13.105 0-1.976 2.766-1.646 3.293 0.395 0.263 1.119 15.146 14.026 16.134 14.026 0.132 0-1.383-2.239-3.358-5.071-9.812-13.631-17.385-28.448-22.587-43.989-4.873-14.685-7.046-26.407-8.495-46.096l-0.461-6.585-4.346 6.914zM300.615 398.405c0.198 0.395-0.066 0.461-0.593 0.263-1.185-0.461-1.383-0.922-0.461-0.922 0.395 0 0.856 0.263 1.054 0.659zM845.541 438.312c0 0.527-0.263 0.79-0.659 0.593-0.329-0.198-0.659-0.856-0.659-1.383s0.329-0.79 0.659-0.593c0.395 0.198 0.659 0.856 0.659 1.383zM1065.289 458.726c4.807 2.305 13.5 3.358 18.241 2.239 4.083-0.988 8.561-0.593 11.788 1.054 2.568 1.317 5.729 4.149 5.729 5.202 0 0.461 1.515 2.107 3.293 3.754 2.568 2.371 3.293 3.424 3.293 5.005 0 1.449-0.395 2.107-1.317 2.437-0.724 0.198-1.317 0.856-1.317 1.383 0 1.185 0 1.185-3.885-0.395l-3.227-1.251-1.054 1.58c-0.527 0.856-2.634 2.305-4.675 3.293-6.717 3.293-11.063 1.844-21.863-7.507-6.322-5.4-9.153-9.483-11.129-15.673-0.856-2.832-1.58-5.268-1.58-5.334 0-0.132 0.988 0.395 2.173 1.185 1.119 0.79 3.622 2.173 5.532 3.029zM888.081 583.318c-1.185 15.541-6.124 26.934-16.595 38.26-3.49 3.819-4.741 4.675-6.322 4.675-1.91 0-1.91-0.066 1.778-3.029 11.458-9.351 19.295-24.76 20.546-40.236 0.198-3.029 0.527-5.466 0.724-5.466s0.132 2.568-0.132 5.795z"></path>
<path fill="#000" d="M1085.638 463.928c-2.502 1.317-3.622 2.897-3.688 5.071 0 2.173 2.7 4.478 5.334 4.478 1.712 0 1.844-0.132 1.251-1.712-1.054-2.634-0.79-5.202 0.724-7.112l1.317-1.712h-1.515c-0.856 0-2.371 0.461-3.424 0.988z"></path>
<path fill="#000" d="M1179.411 498.5c1.251 0.856 1.976 0.856 1.976 0 0-0.395-0.659-0.659-1.449-0.659-1.251 0-1.317 0.132-0.527 0.659z"></path>
<path fill="#000" d="M1143.851 521.549c0 0.329 0.329 0.659 0.659 0.659 0.395 0 0.659-0.329 0.659-0.659 0-0.395-0.263-0.659-0.659-0.659-0.329 0-0.659 0.263-0.659 0.659z"></path>
<path fill="#000" d="M1145.958 531.756c-0.659 1.449-0.593 1.646 0.461 1.646 0.922 0 1.119-0.395 0.856-1.646-0.132-0.922-0.329-1.646-0.461-1.646-0.066 0-0.461 0.724-0.856 1.646z"></path>
<path fill="#000" d="M1142.27 531.756c-0.593 1.515-0.527 1.646 0.593 1.646s1.251-0.593 0.395-1.844c-0.461-0.724-0.659-0.659-0.988 0.198z"></path>
<path fill="#000" d="M1151.753 532.546c-0.724 1.515-0.922 1.646-1.119 0.659-0.395-1.515-1.251-1.383-2.502 0.329-0.988 1.449-0.922 1.515 0.79 1.91 1.054 0.263 2.371 0.659 3.029 0.922 0.988 0.395 1.119 0.066 1.119-2.568 0-1.646-0.132-3.029-0.198-3.029-0.132 0-0.659 0.79-1.119 1.778z"></path>
<path fill="#000" d="M1438.868 836.651v6.914h4.61v-8.561h10.536v42.145h-2.963c-2.7 0-2.963 0.132-2.963 1.646v1.646h24.365v-1.646c0-1.515-0.263-1.646-2.963-1.646h-2.963v-42.145h11.853v8.561h4.61v-13.829h-44.121v6.914z"></path>
<path fill="#000" d="M58.543 831.712c-17.451 2.041-30.49 8.1-40.894 19.031-8.758 9.088-12.973 19.887-13.039 33.058 0 7.375 0.79 12.183 3.029 19.163 5.071 15.475 20.348 27.658 48.665 38.787 10.141 4.017 24.563 11.392 29.568 15.212 5.466 4.083 9.878 9.944 11.327 14.883 1.646 5.466 1.054 14.487-1.185 19.426-2.173 4.61-7.31 10.207-11.656 12.578-7.31 3.951-18.439 5.334-26.999 3.358-7.902-1.91-13.434-5.466-18.175-11.722-5.4-7.046-8.297-15.673-9.285-27.329l-0.461-5.4h-2.371c-7.705 0.066-17.648 4.149-21.534 8.89-3.819 4.675-5.136 8.495-5.136 14.817-0.066 12.973 6.256 22.324 19.69 29.107 10.536 5.334 19.229 7.112 36.877 7.573 11.985 0.329 14.883 0.132 21.731-0.988 13.631-2.371 22.785-6.19 32.728-13.697 6.98-5.202 11.656-10.8 15.344-18.373 4.083-8.297 5.136-13.302 5.136-23.707-0.066-16.858-5.202-27.724-17.846-37.931-7.902-6.388-15.475-10.47-31.016-16.726-19.097-7.639-30.95-14.29-37.404-20.875-7.507-7.705-9.944-17.912-6.651-27.987 1.185-3.688 2.173-5.202 5.4-8.495 5.268-5.268 10.405-7.178 19.163-7.178 5.4 0 6.388 0.198 10.339 2.173 8.758 4.28 14.817 13.961 16.858 26.802l1.054 6.914h3.358c7.902-0.066 17.187-3.227 21.995-7.639 4.412-3.951 6.322-8.166 6.322-14.158-0.066-4.28-0.329-5.597-2.173-9.285-4.807-9.812-16.068-16.331-33.321-19.295-7.244-1.251-22.785-1.778-29.436-0.988z"></path>
<path fill="#000" d="M232.392 832.041c-21.468 3.49-34.902 10.075-47.479 23.377-15.475 16.2-22.982 37.009-24.036 66.181-1.317 38.063 10.141 68.552 31.938 84.949 9.812 7.375 19.887 11.853 33.782 14.948 6.124 1.317 8.561 1.515 22.324 1.515 17.253 0 21.139-0.527 33.585-4.675 18.768-6.256 33.519-18.768 43.66-37.141 8.956-16.2 13.368-40.17 11.656-63.679-1.91-27.065-10.339-48.138-25.353-63.086-10.8-10.866-24.102-17.78-41.816-21.731-6.849-1.515-30.424-1.976-38.26-0.659zM263.013 850.743c11.129 3.951 18.043 11.063 23.443 23.97 5.729 13.763 7.507 26.077 7.507 52.484 0 13.961-0.329 20.941-1.119 27.329-3.819 28.777-13.961 44.779-31.741 50.113-5.466 1.646-17.583 1.646-23.048 0-10.405-3.095-18.504-10.273-23.641-20.941-7.31-15.080-9.614-28.843-9.614-56.765 0-27.197 2.963-43.528 10.405-58.016 4.675-9.022 14.224-16.661 24.036-19.163 5.268-1.383 18.834-0.79 23.773 0.988z"></path>
<path fill="#000" d="M1132.656 832.107c-19.295 3.49-34.309 13.434-42.409 28.185-3.424 6.124-5.071 12.248-5.466 20.151-0.395 7.836 0.395 14.092 2.766 21.599 4.939 15.541 19.229 27.263 47.414 38.721 26.604 10.8 38.721 19.426 42.606 30.358 1.778 5.071 1.449 13.895-0.79 19.624-1.778 4.544-7.771 11.063-12.446 13.434-4.28 2.173-12.248 4.017-17.517 4.017-5.466 0-13.895-1.976-17.385-4.083-7.046-4.215-13.17-11.919-15.805-19.756-1.58-4.939-3.358-14.685-3.358-18.702v-2.897h-2.437c-7.441 0.066-17.451 4.017-21.402 8.495-7.968 9.022-7.375 24.168 1.251 34.836 6.256 7.705 21.073 14.29 37.338 16.529 6.585 0.922 22.521 0.922 29.107 0 20.085-2.766 36.877-11.392 46.755-23.838 4.478-5.729 7.771-12.446 9.549-19.492 1.185-4.675 1.317-6.914 1.119-15.146-0.263-8.297-0.527-10.339-2.107-14.817-3.227-9.417-10.734-18.636-20.48-25.221-5.466-3.688-16.2-8.956-26.012-12.841-17.714-6.98-30.621-14.224-37.272-20.875-12.512-12.512-10.075-33.848 4.544-40.828 20.151-9.614 38.392 3.358 41.026 29.041l0.461 4.412 4.017-0.329c6.058-0.527 14.026-2.7 17.451-4.61 10.010-5.861 13.17-16.463 7.968-27.065-4.741-9.614-17.056-16.331-34.572-18.965-8.232-1.251-27.065-1.185-33.914 0.066z"></path>
<path fill="#000" d="M1486.94 833.358c0 1.383 0.329 1.646 1.976 1.646h1.976v42.145h-3.622c-3.424 0-3.622 0.066-3.622 1.646v1.646h17.78v-1.646c0-1.449-0.263-1.646-2.305-1.646h-2.305v-19.624c0-11.722 0.263-19.163 0.593-18.57s3.424 9.285 6.914 19.426c3.424 10.141 6.585 19.426 6.98 20.546 0.724 1.91 1.054 2.173 3.161 2.173h2.437l6.914-21.139c3.754-11.59 7.112-21.27 7.375-21.402 0.329-0.198 0.461 8.363 0.395 18.965l-0.198 19.295-2.107 0.198c-1.976 0.198-2.173 0.395-2.173 2.502v2.305l3.161-0.329c1.712-0.198 6.849-0.527 11.524-0.79 8.232-0.395 8.363-0.395 8.363-1.91 0-1.251-0.395-1.58-2.107-1.778l-2.173-0.198v-41.487l2.173-0.198c1.778-0.198 2.107-0.461 2.107-1.844v-1.646l-19.953 0.395-5.729 17.122-5.663 17.056-3.095-8.824c-1.712-4.873-4.346-12.578-5.927-17.122l-2.766-8.232-20.085-0.395v1.712z"></path>
<path fill="#000" d="M623.619 841.26v6.914h8.363c7.046 0 8.758 0.198 11.129 1.317 4.083 1.976 4.873 4.215 4.873 13.302v7.507l-11.129 32.597c-15.409 45.306-20.743 61.638-22.851 70.198-1.844 7.507-2.897 8.89-2.897 3.951 0-1.515-0.329-3.819-0.659-5.071-0.395-1.251-1.119-4.412-1.646-6.914-0.527-2.568-1.778-7.31-2.7-10.536-2.568-8.627-28.382-84.291-29.568-86.595-1.383-2.634-1.383-12.512 0-15.146 1.58-3.095 3.227-3.622 12.512-3.951l8.561-0.329 0.198-6.783 0.198-6.717h-86.332v13.829h5.795c5.268 0 6.058 0.198 8.89 1.91 1.646 1.119 3.754 3.095 4.675 4.478 0.856 1.383 14.092 38.326 29.304 82.183s27.987 80.669 28.382 81.854l0.79 2.107h26.077l1.317-3.819c10.668-31.148 51.101-148.101 53.274-154.226 5.795-16.002 5.597-15.805 16.265-15.805h8.166l-3.293-13.17h-67.696v6.914z"></path>
<path fill="#000" d="M702.642 841.985v7.046l7.441-0.329c8.824-0.461 11.063 0.132 13.895 3.622l2.041 2.568 0.198 72.437c0.198 80.208 0.395 75.203-4.083 78.43-1.844 1.317-2.963 1.449-10.734 1.646l-8.758 0.263v13.039h76.718c72.635 0 76.718-0.066 76.718-1.185 0-0.593 0.461-11.063 0.988-23.18s0.988-22.258 0.988-22.587c0-0.263-4.083-0.461-9.153-0.461h-9.088l-1.119 7.375c-1.844 11.919-3.358 16.068-7.507 20.48-4.149 4.28-5.4 4.412-35.824 4.412h-26.868l0.132-36.745 0.198-36.68 31.148-0.198 31.082-0.132v-15.146h-62.559v-65.918l49.192 0.395 2.766 1.91c1.976 1.383 3.358 3.161 5.005 6.585 1.976 4.083 2.437 5.861 3.293 13.763 0.527 5.071 0.988 9.285 0.988 9.417s4.083 0.263 9.088 0.263h9.022l-0.395-15.278c-0.263-8.429-0.461-19.295-0.527-24.102l-0.066-8.692h-144.216v6.98z"></path>
<path fill="#000" d="M359.552 842.248v6.585h7.968c9.153 0 11.195 0.659 13.763 4.412l1.646 2.437 0.198 70.462c0.132 38.787 0 71.779-0.198 73.359-0.329 2.041-1.119 3.556-2.897 5.4l-2.502 2.634h-17.978v13.631l76.454 0.527c42.014 0.263 76.586 0.263 76.784 0.066 0.395-0.395 2.041-41.421 2.107-52.945l0.066-5.4h-14.29l-2.766 12.512c-3.819 17.648-5.861 22.324-11.458 26.604-4.675 3.556-5.663 3.688-34.111 3.688h-26.275l0.132-75.598 0.198-75.532 1.58-2.107c2.634-3.49 4.873-4.149 13.829-4.149h7.968v-13.17h-90.217v6.585z"></path>
<path fill="#000" d="M872.54 842.248v6.585h7.968c9.088 0 11.59 0.79 13.763 4.28 1.383 2.173 1.383 2.766 1.383 75.006 0 80.537 0.263 75.401-4.215 78.101-1.778 1.119-3.358 1.317-10.47 1.317h-8.429v13.829h68.486v-13.829h-7.968c-9.285 0-11.656-0.79-14.224-4.675l-1.646-2.437 0.132-61.44c0-33.782 0.132-61.506 0.198-61.572s23.048 32.333 51.101 71.91l50.97 72.042h25.485v-164.828l1.646-2.568c2.437-3.688 4.873-4.478 13.5-4.478h7.244v-13.17h-68.486v13.17h7.573c8.561 0 10.997 0.659 13.631 3.885 3.161 3.688 3.227 5.334 3.029 60.913l-0.198 51.957-92.193-130.519h-29.107l-29.172-0.066v6.585z"></path>
<path fill="#000" d="M1222.215 842.182v6.519l5.466 0.198c6.19 0.263 9.088 1.712 11.919 5.861 0.856 1.251 13.039 24.497 27.065 51.562l25.419 49.323-0.198 21.797c-0.198 20.678-0.263 21.995-1.58 24.497-0.724 1.449-2.371 3.293-3.556 4.083-2.041 1.383-2.897 1.515-12.248 1.515h-10.141v13.829h94.827v-13.829h-10.141c-10.010 0-10.207 0-12.183-1.712-3.754-3.095-3.688-2.7-3.424-27.592l0.198-23.048 23.707-46.426c25.814-50.443 27.79-54.13 30.621-56.699 2.897-2.766 4.412-3.227 9.68-3.227h5.005v-13.17h-68.486v12.973l6.124 0.395c7.507 0.461 11.656 1.844 14.224 4.807 3.688 4.215 4.412 11.458 1.778 18.702-0.856 2.371-6.585 14.619-12.775 27.329-6.124 12.644-12.907 27.131-15.014 32.136-2.107 4.939-4.017 8.824-4.215 8.561-0.263-0.329-0.988-2.041-1.646-3.819-2.832-7.836-7.046-17.056-19.031-41.092-13.434-26.934-15.080-31.28-13.961-37.141 0.988-5.4 6.585-8.956 15.014-9.549l5.136-0.329v-12.973h-87.583v6.519z"></path>
</svg>
