<svg id="Layer_1" enable-background="new 0 0 512 512" height="512" viewBox="0 0 512 512" width="512" xmlns="http://www.w3.org/2000/svg"><g><path d="m256 175.667c-76.066 0-140.676 48.209-165.161 115.666h330.333c-24.506-67.539-89.222-115.666-165.172-115.666z"/><path d="m368.467 394.533h-32.134c-3.345 0-6.066 2.722-6.066 6.066v32.134c0 3.345 2.722 6.066 6.066 6.066h32.134c3.345 0 6.066-2.722 6.066-6.066v-32.133c0-3.345-2.721-6.067-6.066-6.067z"/><path d="m448.8 321.333h-385.6c-8.284 0-15 6.716-15 15v160.667c0 8.284 6.716 15 15 15h385.6c8.284 0 15-6.716 15-15v-160.667c0-8.284-6.716-15-15-15zm-273.133 137.467h-40.167c-5.522 0-10-4.478-10-10s4.478-10 10-10h40.167c3.345 0 6.066-2.722 6.066-6.066s-2.722-6.066-6.066-6.066h-32.134c-34.52-1.302-34.534-50.826 0-52.134h40.167c5.522 0 10 4.478 10 10s-4.478 10-10 10h-40.167c-8.012.257-8.021 11.875 0 12.134h32.134c14.373 0 26.066 11.693 26.066 26.066s-11.693 26.066-26.066 26.066zm104.433-52.133c5.522 0 10 4.478 10 10s-4.478 10-10 10h-46.233v12.133h54.268c5.522 0 10 4.478 10 10s-4.478 10-10 10h-64.268c-5.522 0-10-4.478-10-10v-64.267c0-5.522 4.478-10 10-10h64.268c5.522 0 10 4.478 10 10s-4.478 10-10 10h-54.268v12.134zm114.433 26.066c0 14.373-11.693 26.066-26.066 26.066h-32.134c-14.373 0-26.066-11.693-26.066-26.066v-32.133c0-14.373 11.693-26.066 26.066-26.066h32.134c14.373 0 26.066 11.693 26.066 26.066z"/><path d="m343.833 87.833c0-48.431-39.402-87.833-87.833-87.833-116.363 4.416-116.33 171.269.001 175.667 48.43 0 87.832-39.402 87.832-87.834z"/></g></svg>