<svg id="Capa_1" enable-background="new 0 0 512 512" height="512" viewBox="0 0 512 512" width="512" xmlns="http://www.w3.org/2000/svg"><g><path d="m336 360h-10c0 38.598-31.402 70-70 70s-70-31.402-70-70h-10c-63.411 0-115 51.589-115 115v22c0 8.284 6.716 15 15 15h360c8.284 0 15-6.716 15-15v-22c0-63.411-51.589-115-115-115z"/><g><path d="m216 345v15c0 22.091 17.909 40 40 40 22.091 0 40-17.909 40-40v-15z"/><g><path d="m256 60c8.284 0 15-6.716 15-15v-30c0-8.284-6.716-15-15-15-8.284 0-15 6.716-15 15v30c0 8.284 6.716 15 15 15z"/><path d="m143.01 49.295 15 25.981c4.142 7.174 13.316 9.632 20.49 5.49 7.174-4.142 9.632-13.316 5.49-20.49l-15-25.981c-4.142-7.174-13.316-9.632-20.49-5.49-7.174 4.142-9.632 13.316-5.49 20.49z"/><path d="m75.295 127.99 25.981 15c7.174 4.142 16.348 1.684 20.49-5.49 4.142-7.174 1.684-16.348-5.49-20.49l-25.981-15c-7.174-4.142-16.348-1.684-20.49 5.49-4.142 7.174-1.684 16.348 5.49 20.49z"/><path d="m421.705 102.01-25.981 15c-7.174 4.142-9.632 13.316-5.49 20.49 4.142 7.174 13.316 9.632 20.49 5.49l25.981-15c7.174-4.142 9.632-13.316 5.49-20.49-4.142-7.174-13.316-9.632-20.49-5.49z"/><path d="m333.5 80.766c7.174 4.142 16.348 1.684 20.49-5.49l15-25.981c4.142-7.174 1.684-16.348-5.49-20.49-7.174-4.142-16.348-1.684-20.49 5.49l-15 25.981c-4.142 7.174-1.684 16.348 5.49 20.49z"/></g><path d="m256 90c-60.751 0-110 49.249-110 110 0 39.093 20.426 73.355 51.165 92.842 8.242 5.225 14.235 13.111 17.044 22.158h26.791v-78.787l-25.607-25.606c-5.858-5.858-5.858-15.355 0-21.213 5.858-5.858 15.355-5.858 21.213 0l19.394 19.393 19.393-19.393c5.858-5.858 15.355-5.858 21.213 0 5.858 5.858 5.858 15.355 0 21.213l-25.606 25.606v78.787h26.791c2.809-9.047 8.803-16.933 17.044-22.158 30.739-19.487 51.165-53.749 51.165-92.842 0-60.751-49.249-110-110-110z"/></g></g></svg>