<svg enable-background="new 0 0 32 32" height="512" viewBox="0 0 32 32" width="512" xmlns="http://www.w3.org/2000/svg"><g id="Layer_9"><path d="m13.882 2.156c-6.069.89-10.927 5.821-11.75 11.9-.611 4.514.944 8.669 3.757 11.611l-2.254 3.381c-.271.406.017.952.507.952h11.406c7.472 0 13.969-5.661 14.426-13.119.54-8.836-7.12-16.041-16.092-14.725zm-.307 20.296c-.577 0-1.046-.468-1.046-1.046 0-.577.468-1.046 1.046-1.046.577 0 1.046.468 1.046 1.046-.001.578-.469 1.046-1.046 1.046zm5.676 0c-.577 0-1.046-.468-1.046-1.046 0-.577.468-1.046 1.046-1.046.577 0 1.046.468 1.046 1.046s-.469 1.046-1.046 1.046zm2.967-7.843-1.333 3.819c-.225.646-.837 1.081-1.522 1.081h-6.147c-.712 0-1.349-.478-1.548-1.161l-1.37-4.71c-.004-.013-.008-.026-.011-.039l-.302-1.036-.886-.294c-.472-.157-.727-.667-.57-1.138s.666-.726 1.138-.57l.979.326c.502.167.891.57 1.039 1.079l.146.501h8.865c.521 0 1.012.253 1.314.678s.38.972.208 1.464z"/></g></svg>